<svg width="22" height="16" viewBox="0 0 22 16" fill="none" xmlns="http://www.w3.org/2000/svg">
<path fill-rule="evenodd" clip-rule="evenodd" d="M21.125 7.99999C21.125 8.29835 21.0065 8.5845 20.7955 8.79548C20.5845 9.00646 20.2984 9.12499 20 9.12499H4.715L8.795 13.205C8.99372 13.4182 9.10191 13.7003 9.09676 13.9918C9.09162 14.2832 8.97355 14.5613 8.76743 14.7674C8.56131 14.9735 8.28323 15.0916 7.99178 15.0967C7.70033 15.1019 7.41826 14.9937 7.205 14.795L1.205 8.79499C0.994326 8.58405 0.87599 8.29811 0.87599 7.99999C0.87599 7.70186 0.994326 7.41592 1.205 7.20499L7.205 1.20499C7.30799 1.09446 7.43219 1.0058 7.57019 0.944315C7.70819 0.882827 7.85716 0.849764 8.00822 0.847098C8.15927 0.844433 8.30931 0.87222 8.4494 0.928802C8.58948 0.985384 8.71673 1.0696 8.82356 1.17643C8.93038 1.28326 9.0146 1.41051 9.07118 1.55059C9.12777 1.69067 9.15555 1.84072 9.15289 1.99177C9.15022 2.14282 9.11716 2.29179 9.05567 2.42979C8.99418 2.56779 8.90553 2.69199 8.795 2.79499L4.715 6.87499H20C20.2984 6.87499 20.5845 6.99351 20.7955 7.20449C21.0065 7.41547 21.125 7.70162 21.125 7.99999Z" fill="#FFFFFF"/>
</svg>
