<svg width="71" height="21" viewBox="0 0 71 21" fill="none" xmlns="http://www.w3.org/2000/svg">
<mask id="path-1-outside-1_2591_758" maskUnits="userSpaceOnUse" x="-1" y="0" width="73" height="22" fill="black">
<rect fill="white" x="-1" width="73" height="22"/>
<path d="M4.944 9.04L3.912 15.184H5.952C7.232 15.184 8.208 14.84 8.88 14.152C9.552 13.464 9.888 12.552 9.888 11.416C9.888 10.744 9.64 10.184 9.144 9.736C8.664 9.272 7.848 9.04 6.696 9.04H4.944ZM5.976 2.776L5.04 8.344H6.024C7.272 8.344 8.232 8.032 8.904 7.408C9.592 6.784 9.936 5.92 9.936 4.816C9.936 3.456 8.848 2.776 6.672 2.776H5.976ZM0.048 16L0.144 15.496C1.024 15.496 1.552 15.336 1.728 15.016L3.744 2.944C3.648 2.624 3.168 2.464 2.304 2.464L2.4 1.96H6.816C8.672 1.96 10.056 2.248 10.968 2.824C11.88 3.384 12.336 4.08 12.336 4.912C12.336 5.792 12.056 6.552 11.496 7.192C10.936 7.816 10.176 8.28 9.216 8.584C10.256 8.84 11.024 9.232 11.52 9.76C12.032 10.288 12.288 10.872 12.288 11.512C12.288 12.84 11.696 13.92 10.512 14.752C9.344 15.584 7.776 16 5.808 16H0.048ZM18.9754 2.056C18.9754 2.488 18.8234 2.864 18.5194 3.184C18.2314 3.504 17.8794 3.664 17.4634 3.664C17.1434 3.664 16.8794 3.56 16.6714 3.352C16.4634 3.128 16.3594 2.848 16.3594 2.512C16.3594 2.08 16.5034 1.704 16.7914 1.384C17.0794 1.048 17.4314 0.879999 17.8474 0.879999C18.1674 0.879999 18.4314 0.991999 18.6394 1.216C18.8634 1.44 18.9754 1.72 18.9754 2.056ZM15.9034 6.904C15.7594 6.888 15.5754 6.872 15.3514 6.856C15.1274 6.84 14.9434 6.824 14.7994 6.808C14.6554 6.792 14.5274 6.784 14.4154 6.784L14.5114 6.232C14.8154 6.232 15.4394 6.064 16.3834 5.728C17.3274 5.376 17.9834 5.2 18.3514 5.2L16.5514 16H14.3914L15.9034 6.904ZM24.8593 1.96L24.2833 5.44H26.3473L26.2273 6.16H24.1633L22.8673 13.792C22.8353 14.048 22.8193 14.232 22.8193 14.344C22.8193 15 23.1713 15.328 23.8753 15.328C24.1633 15.328 24.4753 15.192 24.8113 14.92C25.1633 14.632 25.4353 14.24 25.6273 13.744L26.1553 14.032C25.5633 15.504 24.4753 16.24 22.8913 16.24C21.3233 16.24 20.5393 15.584 20.5393 14.272C20.5393 14.064 20.5633 13.84 20.6113 13.6L21.8593 6.16H20.1793L20.2993 5.44C21.2273 5.44 22.0353 5.096 22.7233 4.408C23.4273 3.704 23.8513 2.888 23.9953 1.96H24.8593Z"/>
<path d="M29.5418 18.136C29.5418 18.712 29.2778 19.096 28.7498 19.288C29.1178 19.72 30.0058 19.936 31.4138 19.936C32.1978 19.936 32.8698 19.6 33.4297 18.928C34.0058 18.256 34.4778 17.12 34.8458 15.52C34.0298 16 33.0458 16.24 31.8938 16.24C31.4298 16.24 30.9738 16.168 30.5258 16.024C30.0938 15.896 29.6618 15.688 29.2298 15.4C28.8138 15.112 28.4698 14.68 28.1978 14.104C27.9418 13.528 27.8138 12.856 27.8138 12.088C27.8138 9.944 28.4378 8.264 29.6858 7.048C30.9338 5.816 32.4618 5.2 34.2698 5.2C34.8778 5.2 35.4378 5.256 35.9498 5.368C36.4778 5.48 36.8858 5.616 37.1738 5.776C37.4778 5.92 37.7338 6.072 37.9418 6.232C38.1498 6.376 38.2938 6.504 38.3738 6.616L38.4938 6.784L37.0778 15.304C36.8058 16.952 36.1898 18.28 35.2298 19.288C34.2698 20.296 33.0298 20.8 31.5098 20.8C30.2138 20.8 29.1898 20.584 28.4378 20.152C27.7018 19.736 27.3338 19.28 27.3338 18.784C27.3338 18.4 27.4618 18.08 27.7178 17.824C27.9738 17.568 28.2618 17.44 28.5818 17.44C29.2218 17.44 29.5418 17.672 29.5418 18.136ZM35.0138 14.728L36.4058 6.4C35.7178 6.144 35.0138 6.016 34.2938 6.016C33.2538 6.016 32.2858 6.608 31.3898 7.792C30.5098 8.976 30.0698 10.448 30.0698 12.208C30.0698 13.2 30.2618 13.984 30.6458 14.56C31.0458 15.136 31.5898 15.424 32.2778 15.424C33.3338 15.424 34.2458 15.192 35.0138 14.728ZM45.1082 2.056C45.1082 2.488 44.9562 2.864 44.6522 3.184C44.3642 3.504 44.0122 3.664 43.5962 3.664C43.2762 3.664 43.0122 3.56 42.8042 3.352C42.5962 3.128 42.4922 2.848 42.4922 2.512C42.4922 2.08 42.6362 1.704 42.9242 1.384C43.2122 1.048 43.5642 0.879999 43.9802 0.879999C44.3002 0.879999 44.5642 0.991999 44.7722 1.216C44.9962 1.44 45.1082 1.72 45.1082 2.056ZM42.0362 6.904C41.8922 6.888 41.7082 6.872 41.4842 6.856C41.2602 6.84 41.0762 6.824 40.9322 6.808C40.7882 6.792 40.6602 6.784 40.5482 6.784L40.6442 6.232C40.9482 6.232 41.5722 6.064 42.5162 5.728C43.4602 5.376 44.1162 5.2 44.4842 5.2L42.6842 16H40.5242L42.0362 6.904ZM54.4001 2.176C54.4001 2.48 54.2801 2.728 54.0401 2.92C53.8161 3.096 53.5521 3.184 53.2481 3.184C52.9761 3.184 52.7841 3.104 52.6721 2.944C52.5601 2.768 52.5121 2.584 52.5281 2.392C52.5441 2.2 52.5041 2.024 52.4081 1.864C52.3121 1.688 52.1361 1.6 51.8801 1.6C51.5761 1.6 51.2881 1.832 51.0161 2.296C50.7441 2.744 50.5361 3.408 50.3921 4.288L50.2001 5.44H51.3041L51.1841 6.16H50.0801L48.4241 16L47.2001 16.84H46.1201L47.9201 6.16H46.7201L46.8401 5.44H48.0401L48.1601 4.624C48.5921 2.128 49.7921 0.879999 51.7601 0.879999C52.6401 0.879999 53.2961 1.008 53.7281 1.264C54.1761 1.52 54.4001 1.824 54.4001 2.176ZM56.9921 1.96L56.4161 5.44H58.4801L58.3601 6.16H56.2961L55.0001 13.792C54.9681 14.048 54.9521 14.232 54.9521 14.344C54.9521 15 55.3041 15.328 56.0081 15.328C56.2961 15.328 56.6081 15.192 56.9441 14.92C57.2961 14.632 57.5681 14.24 57.7601 13.744L58.2881 14.032C57.6961 15.504 56.6081 16.24 55.0241 16.24C53.4561 16.24 52.6721 15.584 52.6721 14.272C52.6721 14.064 52.6961 13.84 52.7441 13.6L53.9921 6.16H52.3121L52.4321 5.44C53.3601 5.44 54.1681 5.096 54.8561 4.408C55.5601 3.704 55.9841 2.888 56.1281 1.96H56.9921ZM63.2083 16L61.0003 6.424C60.9043 6.104 60.4243 5.944 59.5603 5.944L59.6563 5.44H63.0643L64.8643 13.072L68.7523 6.208C68.5443 6.032 68.1123 5.944 67.4563 5.944L67.5523 5.44H70.3843L62.9923 18.448C62.2243 19.76 61.2723 20.416 60.1363 20.416C59.9123 20.416 59.7043 20.344 59.5123 20.2C59.3203 20.056 59.2243 19.88 59.2243 19.672C59.2243 19.416 59.3203 19.176 59.5123 18.952C59.7043 18.728 59.9203 18.616 60.1603 18.616C60.2883 18.616 60.4323 18.68 60.5923 18.808C60.7523 18.952 60.8883 19.024 61.0003 19.024C61.3363 19.024 61.5843 18.88 61.7443 18.592L63.2083 16Z"/>
</mask>
<path d="M4.944 9.04L3.912 15.184H5.952C7.232 15.184 8.208 14.84 8.88 14.152C9.552 13.464 9.888 12.552 9.888 11.416C9.888 10.744 9.64 10.184 9.144 9.736C8.664 9.272 7.848 9.04 6.696 9.04H4.944ZM5.976 2.776L5.04 8.344H6.024C7.272 8.344 8.232 8.032 8.904 7.408C9.592 6.784 9.936 5.92 9.936 4.816C9.936 3.456 8.848 2.776 6.672 2.776H5.976ZM0.048 16L0.144 15.496C1.024 15.496 1.552 15.336 1.728 15.016L3.744 2.944C3.648 2.624 3.168 2.464 2.304 2.464L2.4 1.96H6.816C8.672 1.96 10.056 2.248 10.968 2.824C11.88 3.384 12.336 4.08 12.336 4.912C12.336 5.792 12.056 6.552 11.496 7.192C10.936 7.816 10.176 8.28 9.216 8.584C10.256 8.84 11.024 9.232 11.52 9.76C12.032 10.288 12.288 10.872 12.288 11.512C12.288 12.84 11.696 13.92 10.512 14.752C9.344 15.584 7.776 16 5.808 16H0.048ZM18.9754 2.056C18.9754 2.488 18.8234 2.864 18.5194 3.184C18.2314 3.504 17.8794 3.664 17.4634 3.664C17.1434 3.664 16.8794 3.56 16.6714 3.352C16.4634 3.128 16.3594 2.848 16.3594 2.512C16.3594 2.08 16.5034 1.704 16.7914 1.384C17.0794 1.048 17.4314 0.879999 17.8474 0.879999C18.1674 0.879999 18.4314 0.991999 18.6394 1.216C18.8634 1.44 18.9754 1.72 18.9754 2.056ZM15.9034 6.904C15.7594 6.888 15.5754 6.872 15.3514 6.856C15.1274 6.84 14.9434 6.824 14.7994 6.808C14.6554 6.792 14.5274 6.784 14.4154 6.784L14.5114 6.232C14.8154 6.232 15.4394 6.064 16.3834 5.728C17.3274 5.376 17.9834 5.2 18.3514 5.2L16.5514 16H14.3914L15.9034 6.904ZM24.8593 1.96L24.2833 5.44H26.3473L26.2273 6.16H24.1633L22.8673 13.792C22.8353 14.048 22.8193 14.232 22.8193 14.344C22.8193 15 23.1713 15.328 23.8753 15.328C24.1633 15.328 24.4753 15.192 24.8113 14.92C25.1633 14.632 25.4353 14.24 25.6273 13.744L26.1553 14.032C25.5633 15.504 24.4753 16.24 22.8913 16.24C21.3233 16.24 20.5393 15.584 20.5393 14.272C20.5393 14.064 20.5633 13.84 20.6113 13.6L21.8593 6.16H20.1793L20.2993 5.44C21.2273 5.44 22.0353 5.096 22.7233 4.408C23.4273 3.704 23.8513 2.888 23.9953 1.96H24.8593Z" fill="black"/>
<path d="M29.5418 18.136C29.5418 18.712 29.2778 19.096 28.7498 19.288C29.1178 19.72 30.0058 19.936 31.4138 19.936C32.1978 19.936 32.8698 19.6 33.4297 18.928C34.0058 18.256 34.4778 17.12 34.8458 15.52C34.0298 16 33.0458 16.24 31.8938 16.24C31.4298 16.24 30.9738 16.168 30.5258 16.024C30.0938 15.896 29.6618 15.688 29.2298 15.4C28.8138 15.112 28.4698 14.68 28.1978 14.104C27.9418 13.528 27.8138 12.856 27.8138 12.088C27.8138 9.944 28.4378 8.264 29.6858 7.048C30.9338 5.816 32.4618 5.2 34.2698 5.2C34.8778 5.2 35.4378 5.256 35.9498 5.368C36.4778 5.48 36.8858 5.616 37.1738 5.776C37.4778 5.92 37.7338 6.072 37.9418 6.232C38.1498 6.376 38.2938 6.504 38.3738 6.616L38.4938 6.784L37.0778 15.304C36.8058 16.952 36.1898 18.28 35.2298 19.288C34.2698 20.296 33.0298 20.8 31.5098 20.8C30.2138 20.8 29.1898 20.584 28.4378 20.152C27.7018 19.736 27.3338 19.28 27.3338 18.784C27.3338 18.4 27.4618 18.08 27.7178 17.824C27.9738 17.568 28.2618 17.44 28.5818 17.44C29.2218 17.44 29.5418 17.672 29.5418 18.136ZM35.0138 14.728L36.4058 6.4C35.7178 6.144 35.0138 6.016 34.2938 6.016C33.2538 6.016 32.2858 6.608 31.3898 7.792C30.5098 8.976 30.0698 10.448 30.0698 12.208C30.0698 13.2 30.2618 13.984 30.6458 14.56C31.0458 15.136 31.5898 15.424 32.2778 15.424C33.3338 15.424 34.2458 15.192 35.0138 14.728ZM45.1082 2.056C45.1082 2.488 44.9562 2.864 44.6522 3.184C44.3642 3.504 44.0122 3.664 43.5962 3.664C43.2762 3.664 43.0122 3.56 42.8042 3.352C42.5962 3.128 42.4922 2.848 42.4922 2.512C42.4922 2.08 42.6362 1.704 42.9242 1.384C43.2122 1.048 43.5642 0.879999 43.9802 0.879999C44.3002 0.879999 44.5642 0.991999 44.7722 1.216C44.9962 1.44 45.1082 1.72 45.1082 2.056ZM42.0362 6.904C41.8922 6.888 41.7082 6.872 41.4842 6.856C41.2602 6.84 41.0762 6.824 40.9322 6.808C40.7882 6.792 40.6602 6.784 40.5482 6.784L40.6442 6.232C40.9482 6.232 41.5722 6.064 42.5162 5.728C43.4602 5.376 44.1162 5.2 44.4842 5.2L42.6842 16H40.5242L42.0362 6.904ZM54.4001 2.176C54.4001 2.48 54.2801 2.728 54.0401 2.92C53.8161 3.096 53.5521 3.184 53.2481 3.184C52.9761 3.184 52.7841 3.104 52.6721 2.944C52.5601 2.768 52.5121 2.584 52.5281 2.392C52.5441 2.2 52.5041 2.024 52.4081 1.864C52.3121 1.688 52.1361 1.6 51.8801 1.6C51.5761 1.6 51.2881 1.832 51.0161 2.296C50.7441 2.744 50.5361 3.408 50.3921 4.288L50.2001 5.44H51.3041L51.1841 6.16H50.0801L48.4241 16L47.2001 16.84H46.1201L47.9201 6.16H46.7201L46.8401 5.44H48.0401L48.1601 4.624C48.5921 2.128 49.7921 0.879999 51.7601 0.879999C52.6401 0.879999 53.2961 1.008 53.7281 1.264C54.1761 1.52 54.4001 1.824 54.4001 2.176ZM56.9921 1.96L56.4161 5.44H58.4801L58.3601 6.16H56.2961L55.0001 13.792C54.9681 14.048 54.9521 14.232 54.9521 14.344C54.9521 15 55.3041 15.328 56.0081 15.328C56.2961 15.328 56.6081 15.192 56.9441 14.92C57.2961 14.632 57.5681 14.24 57.7601 13.744L58.2881 14.032C57.6961 15.504 56.6081 16.24 55.0241 16.24C53.4561 16.24 52.6721 15.584 52.6721 14.272C52.6721 14.064 52.6961 13.84 52.7441 13.6L53.9921 6.16H52.3121L52.4321 5.44C53.3601 5.44 54.1681 5.096 54.8561 4.408C55.5601 3.704 55.9841 2.888 56.1281 1.96H56.9921ZM63.2083 16L61.0003 6.424C60.9043 6.104 60.4243 5.944 59.5603 5.944L59.6563 5.44H63.0643L64.8643 13.072L68.7523 6.208C68.5443 6.032 68.1123 5.944 67.4563 5.944L67.5523 5.44H70.3843L62.9923 18.448C62.2243 19.76 61.2723 20.416 60.1363 20.416C59.9123 20.416 59.7043 20.344 59.5123 20.2C59.3203 20.056 59.2243 19.88 59.2243 19.672C59.2243 19.416 59.3203 19.176 59.5123 18.952C59.7043 18.728 59.9203 18.616 60.1603 18.616C60.2883 18.616 60.4323 18.68 60.5923 18.808C60.7523 18.952 60.8883 19.024 61.0003 19.024C61.3363 19.024 61.5843 18.88 61.7443 18.592L63.2083 16Z" fill="#113C9A"/>
<path d="M4.944 9.04V8.54H4.52098L4.45091 8.95718L4.944 9.04ZM3.912 15.184L3.41891 15.1012L3.32101 15.684H3.912V15.184ZM8.88 14.152L8.52231 13.8026L8.88 14.152ZM9.144 9.736L8.79649 10.0955L8.80258 10.1014L8.80886 10.1071L9.144 9.736ZM5.976 2.776V2.276H5.55304L5.48292 2.69311L5.976 2.776ZM5.04 8.344L4.54692 8.26111L4.44893 8.844H5.04V8.344ZM8.904 7.408L8.56807 7.03761L8.56378 7.0416L8.904 7.408ZM0.048 16L-0.443169 15.9064L-0.556228 16.5H0.048V16ZM0.144 15.496V14.996H-0.269751L-0.347169 15.4024L0.144 15.496ZM1.728 15.016L2.16611 15.257L2.20714 15.1823L2.22117 15.0984L1.728 15.016ZM3.744 2.944L4.23717 3.02636L4.25632 2.91168L4.22291 2.80033L3.744 2.944ZM2.304 2.464L1.81283 2.37044L1.69977 2.964H2.304V2.464ZM2.4 1.96V1.46H1.98625L1.90883 1.86644L2.4 1.96ZM10.968 2.824L10.701 3.24678L10.7064 3.25008L10.968 2.824ZM11.496 7.192L11.8682 7.52598L11.8723 7.52125L11.496 7.192ZM9.216 8.584L9.06505 8.10733L7.36924 8.64434L9.09649 9.06951L9.216 8.584ZM11.52 9.76L11.1555 10.1024L11.161 10.1081L11.52 9.76ZM10.512 14.752L10.2245 14.3429L10.2219 14.3448L10.512 14.752ZM4.45091 8.95718L3.41891 15.1012L4.40509 15.2668L5.43709 9.12282L4.45091 8.95718ZM3.912 15.684H5.952V14.684H3.912V15.684ZM5.952 15.684C7.32041 15.684 8.44358 15.3144 9.23769 14.5014L8.52231 13.8026C7.97242 14.3656 7.14359 14.684 5.952 14.684V15.684ZM9.23769 14.5014C10.0172 13.7033 10.388 12.6572 10.388 11.416H9.388C9.388 12.4468 9.08677 13.2247 8.52231 13.8026L9.23769 14.5014ZM10.388 11.416C10.388 10.6034 10.0808 9.90834 9.47914 9.36495L8.80886 10.1071C9.19925 10.4597 9.388 10.8846 9.388 11.416H10.388ZM9.49151 9.37651C8.87029 8.77599 7.89051 8.54 6.696 8.54V9.54C7.80549 9.54 8.45771 9.76801 8.79649 10.0955L9.49151 9.37651ZM6.696 8.54H4.944V9.54H6.696V8.54ZM5.48292 2.69311L4.54692 8.26111L5.53308 8.42689L6.46908 2.85889L5.48292 2.69311ZM5.04 8.844H6.024V7.844H5.04V8.844ZM6.024 8.844C7.35201 8.844 8.4507 8.51125 9.24423 7.7744L8.56378 7.0416C8.01331 7.55275 7.19199 7.844 6.024 7.844V8.844ZM9.23991 7.77836C10.0521 7.0417 10.436 6.03206 10.436 4.816H9.436C9.436 5.80794 9.13188 6.5263 8.56809 7.03764L9.23991 7.77836ZM10.436 4.816C10.436 3.97609 10.0855 3.2998 9.385 2.862C8.72371 2.44869 7.7959 2.276 6.672 2.276V3.276C7.7241 3.276 8.4283 3.44331 8.855 3.71C9.24253 3.9522 9.436 4.29591 9.436 4.816H10.436ZM6.672 2.276H5.976V3.276H6.672V2.276ZM0.539169 16.0936L0.635169 15.5896L-0.347169 15.4024L-0.443169 15.9064L0.539169 16.0936ZM0.144 15.996C0.607617 15.996 1.01459 15.9546 1.345 15.8545C1.67131 15.7556 1.98944 15.5782 2.16611 15.257L1.28989 14.775C1.28962 14.7755 1.28219 14.7898 1.24833 14.8129C1.21257 14.8373 1.15192 14.8681 1.055 14.8975C0.857406 14.9574 0.560383 14.996 0.144 14.996V15.996ZM2.22117 15.0984L4.23717 3.02636L3.25083 2.86164L1.23483 14.9336L2.22117 15.0984ZM4.22291 2.80033C4.10769 2.41624 3.78155 2.21347 3.47011 2.10966C3.15553 2.0048 2.75739 1.964 2.304 1.964V2.964C2.71461 2.964 2.98847 3.0032 3.15389 3.05834C3.32245 3.11453 3.28431 3.15176 3.26509 3.08767L4.22291 2.80033ZM2.79517 2.55756L2.89117 2.05356L1.90883 1.86644L1.81283 2.37044L2.79517 2.55756ZM2.4 2.46H6.816V1.46H2.4V2.46ZM6.816 2.46C8.63754 2.46 9.90782 2.74579 10.701 3.24674L11.235 2.40125C10.2042 1.75021 8.70646 1.46 6.816 1.46V2.46ZM10.7064 3.25008C11.5186 3.74882 11.836 4.30385 11.836 4.912H12.836C12.836 3.85615 12.2414 3.01918 11.2296 2.39791L10.7064 3.25008ZM11.836 4.912C11.836 5.6755 11.597 6.31731 11.1197 6.86275L11.8723 7.52125C12.515 6.78669 12.836 5.9085 12.836 4.912H11.836ZM11.1239 6.85804C10.6345 7.40335 9.95707 7.82486 9.06505 8.10733L9.36695 9.06067C10.3949 8.73514 11.2375 8.22865 11.8681 7.52595L11.1239 6.85804ZM9.09649 9.06951C10.0849 9.31282 10.7502 9.67081 11.1556 10.1023L11.8844 9.41766C11.2978 8.79319 10.4271 8.36718 9.33551 8.09849L9.09649 9.06951ZM11.161 10.1081C11.5972 10.5578 11.788 11.0215 11.788 11.512H12.788C12.788 10.7225 12.4668 10.0182 11.879 9.41193L11.161 10.1081ZM11.788 11.512C11.788 12.6608 11.2893 13.5947 10.2245 14.3429L10.7995 15.1611C12.1027 14.2453 12.788 13.0192 12.788 11.512H11.788ZM10.2219 14.3448C9.16494 15.0977 7.70984 15.5 5.808 15.5V16.5C7.84216 16.5 9.52306 16.0703 10.8021 15.1592L10.2219 14.3448ZM5.808 15.5H0.048V16.5H5.808V15.5ZM18.5194 3.184L18.1567 2.8395L18.1477 2.84952L18.5194 3.184ZM16.6714 3.352L16.305 3.69223L16.3113 3.69901L16.3178 3.70555L16.6714 3.352ZM16.7914 1.384L17.1631 1.71858L17.171 1.70939L16.7914 1.384ZM18.6394 1.216L18.273 1.55622L18.2793 1.56301L18.2858 1.56955L18.6394 1.216ZM15.9034 6.904L16.3966 6.98599L16.4832 6.46534L15.9586 6.40706L15.9034 6.904ZM15.3514 6.856L15.3158 7.35473H15.3158L15.3514 6.856ZM14.7994 6.808L14.7442 7.30494L14.7994 6.808ZM14.4154 6.784L13.9228 6.69833L13.8209 7.284H14.4154V6.784ZM14.5114 6.232V5.732H14.0908L14.0188 6.14633L14.5114 6.232ZM16.3834 5.728L16.5511 6.1991L16.5581 6.19649L16.3834 5.728ZM18.3514 5.2L18.8446 5.2822L18.9416 4.7H18.3514V5.2ZM16.5514 16V16.5H16.9749L17.0446 16.0822L16.5514 16ZM14.3914 16L13.8981 15.918L13.8014 16.5H14.3914V16ZM18.4754 2.056C18.4754 2.35677 18.3747 2.61031 18.1569 2.83962L18.8819 3.52837C19.272 3.11769 19.4754 2.61923 19.4754 2.056H18.4754ZM18.1477 2.84952C17.9508 3.06834 17.7321 3.164 17.4634 3.164V4.164C18.0266 4.164 18.512 3.93966 18.891 3.51848L18.1477 2.84952ZM17.4634 3.164C17.2631 3.164 17.1305 3.10397 17.0249 2.99845L16.3178 3.70555C16.6283 4.01603 17.0236 4.164 17.4634 4.164V3.164ZM17.0378 3.01177C16.9245 2.88976 16.8594 2.7354 16.8594 2.512H15.8594C15.8594 2.9606 16.0023 3.36624 16.305 3.69223L17.0378 3.01177ZM16.8594 2.512C16.8594 2.20305 16.958 1.94632 17.163 1.71848L16.4197 1.04952C16.0488 1.46168 15.8594 1.95695 15.8594 2.512H16.8594ZM17.171 1.70939C17.3709 1.47617 17.5876 1.38 17.8474 1.38V0.379999C17.2751 0.379999 16.7878 0.619823 16.4117 1.0586L17.171 1.70939ZM17.8474 1.38C18.0357 1.38 18.1645 1.43937 18.273 1.55622L19.0058 0.875773C18.6983 0.544631 18.2991 0.379999 17.8474 0.379999V1.38ZM18.2858 1.56955C18.4099 1.69365 18.4754 1.84368 18.4754 2.056H19.4754C19.4754 1.59632 19.3168 1.18634 18.9929 0.862445L18.2858 1.56955ZM15.9586 6.40706C15.8056 6.39005 15.6144 6.37351 15.387 6.35727L15.3158 7.35473C15.5363 7.37049 15.7132 7.38594 15.8482 7.40094L15.9586 6.40706ZM15.387 6.35727C15.1664 6.34151 14.9896 6.32605 14.8546 6.31106L14.7442 7.30494C14.8972 7.32194 15.0883 7.33848 15.3158 7.35473L15.387 6.35727ZM14.8546 6.31106C14.6973 6.29358 14.5503 6.284 14.4154 6.284V7.284C14.5045 7.284 14.6135 7.29042 14.7442 7.30494L14.8546 6.31106ZM14.908 6.86967L15.004 6.31767L14.0188 6.14633L13.9228 6.69833L14.908 6.86967ZM14.5114 6.732C14.7335 6.732 15.0194 6.6744 15.3374 6.58881C15.667 6.50007 16.0726 6.36935 16.551 6.19905L16.2157 5.25695C15.7502 5.42265 15.3718 5.54393 15.0774 5.62319C14.7713 5.7056 14.5932 5.732 14.5114 5.732V6.732ZM16.5581 6.19649C17.0216 6.02365 17.4056 5.89738 17.7129 5.81492C18.0279 5.73042 18.2335 5.7 18.3514 5.7V4.7C18.1012 4.7 17.7949 4.75758 17.4538 4.84908C17.1052 4.94261 16.6892 5.08035 16.2087 5.25951L16.5581 6.19649ZM17.8582 5.1178L16.0582 15.9178L17.0446 16.0822L18.8446 5.2822L17.8582 5.1178ZM16.5514 15.5H14.3914V16.5H16.5514V15.5ZM14.8846 16.082L16.3966 6.98599L15.4101 6.82201L13.8981 15.918L14.8846 16.082ZM24.8593 1.96L25.3526 2.04165L25.4489 1.46H24.8593V1.96ZM24.2833 5.44L23.79 5.35835L23.6938 5.94H24.2833V5.44ZM26.3473 5.44L26.8405 5.5222L26.9375 4.94H26.3473V5.44ZM26.2273 6.16V6.66H26.6509L26.7205 6.2422L26.2273 6.16ZM24.1633 6.16V5.66H23.7411L23.6704 6.07629L24.1633 6.16ZM22.8673 13.792L22.3744 13.7083L22.3725 13.7191L22.3712 13.73L22.8673 13.792ZM24.8113 14.92L25.1259 15.3086L25.1279 15.307L24.8113 14.92ZM25.6273 13.744L25.8667 13.3051L25.3667 13.0323L25.161 13.5635L25.6273 13.744ZM26.1553 14.032L26.6192 14.2186L26.7851 13.806L26.3947 13.5931L26.1553 14.032ZM20.6113 13.6L21.1016 13.6981L21.1031 13.6904L21.1044 13.6827L20.6113 13.6ZM21.8593 6.16L22.3524 6.24271L22.4502 5.66H21.8593V6.16ZM20.1793 6.16L19.6861 6.0778L19.5891 6.66H20.1793V6.16ZM20.2993 5.44V4.94H19.8757L19.8061 5.3578L20.2993 5.44ZM22.7233 4.408L23.0769 4.76155L22.7233 4.408ZM23.9953 1.96V1.46H23.5669L23.5012 1.88333L23.9953 1.96ZM24.366 1.87835L23.79 5.35835L24.7766 5.52165L25.3526 2.04165L24.366 1.87835ZM24.2833 5.94H26.3473V4.94H24.2833V5.94ZM25.8541 5.3578L25.7341 6.0778L26.7205 6.2422L26.8405 5.5222L25.8541 5.3578ZM26.2273 5.66H24.1633V6.66H26.2273V5.66ZM23.6704 6.07629L22.3744 13.7083L23.3603 13.8757L24.6563 6.24371L23.6704 6.07629ZM22.3712 13.73C22.339 13.9871 22.3193 14.1981 22.3193 14.344H23.3193C23.3193 14.2659 23.3316 14.1089 23.3635 13.854L22.3712 13.73ZM22.3193 14.344C22.3193 14.7585 22.4322 15.1587 22.7425 15.4478C23.0461 15.7307 23.4547 15.828 23.8753 15.828V14.828C23.592 14.828 23.4726 14.7613 23.4242 14.7162C23.3825 14.6773 23.3193 14.5855 23.3193 14.344H22.3193ZM23.8753 15.828C24.3229 15.828 24.7437 15.6181 25.1259 15.3086L24.4967 14.5314C24.207 14.7659 24.0038 14.828 23.8753 14.828V15.828ZM25.1279 15.307C25.5574 14.9556 25.8757 14.4873 26.0936 13.9245L25.161 13.5635C24.9949 13.9927 24.7692 14.3084 24.4947 14.533L25.1279 15.307ZM25.3879 14.1829L25.9159 14.4709L26.3947 13.5931L25.8667 13.3051L25.3879 14.1829ZM25.6914 13.8454C25.4248 14.5085 25.0608 14.9724 24.6152 15.2739C24.1696 15.5753 23.6043 15.74 22.8913 15.74V16.74C23.7623 16.74 24.533 16.5367 25.1755 16.1021C25.8179 15.6676 26.2938 15.0275 26.6192 14.2186L25.6914 13.8454ZM22.8913 15.74C22.1648 15.74 21.7131 15.5862 21.4482 15.3645C21.2004 15.1572 21.0393 14.8252 21.0393 14.272H20.0393C20.0393 15.0308 20.2703 15.6828 20.8065 16.1315C21.3256 16.5658 22.0498 16.74 22.8913 16.74V15.74ZM21.0393 14.272C21.0393 14.1021 21.059 13.9113 21.1016 13.6981L20.121 13.5019C20.0677 13.7687 20.0393 14.0259 20.0393 14.272H21.0393ZM21.1044 13.6827L22.3524 6.24271L21.3662 6.07728L20.1182 13.5173L21.1044 13.6827ZM21.8593 5.66H20.1793V6.66H21.8593V5.66ZM20.6725 6.2422L20.7925 5.5222L19.8061 5.3578L19.6861 6.0778L20.6725 6.2422ZM20.2993 5.94C21.3669 5.94 22.3002 5.53826 23.0769 4.76155L22.3698 4.05445C21.7705 4.65374 21.0877 4.94 20.2993 4.94V5.94ZM23.0769 4.76155C23.8511 3.98731 24.3281 3.07605 24.4894 2.03667L23.5012 1.88333C23.3745 2.69995 23.0035 3.42069 22.3698 4.05445L23.0769 4.76155ZM23.9953 2.46H24.8593V1.46H23.9953V2.46ZM28.7498 19.288L28.5789 18.8181L27.9022 19.0642L28.3691 19.6122L28.7498 19.288ZM33.4297 18.928L33.0501 18.6026L33.0456 18.6079L33.4297 18.928ZM34.8457 15.52L35.333 15.6321L35.5934 14.5001L34.5922 15.089L34.8457 15.52ZM30.5257 16.024L30.6788 15.5479L30.6678 15.5446L30.5257 16.024ZM29.2297 15.4L28.9451 15.8112L28.9524 15.816L29.2297 15.4ZM28.1978 14.104L27.7407 14.3071L27.7456 14.3175L28.1978 14.104ZM29.6858 7.048L30.0347 7.40612L30.037 7.40383L29.6858 7.048ZM35.9497 5.368L35.8429 5.85646L35.846 5.85712L35.9497 5.368ZM37.1738 5.776L36.9309 6.21308L36.9451 6.22094L36.9597 6.22787L37.1738 5.776ZM37.9417 6.232L37.6369 6.62831L37.6468 6.63596L37.6571 6.6431L37.9417 6.232ZM38.3737 6.616L38.7806 6.32538V6.32538L38.3737 6.616ZM38.4938 6.784L38.987 6.86597L39.0209 6.6618L38.9006 6.49338L38.4938 6.784ZM37.0778 15.304L36.5845 15.222L36.5844 15.2226L37.0778 15.304ZM35.2298 19.288L35.5918 19.6328L35.2298 19.288ZM28.4377 20.152L28.6868 19.7184L28.6838 19.7167L28.4377 20.152ZM27.7178 17.824L27.3642 17.4704L27.7178 17.824ZM35.0138 14.728L35.2723 15.156L35.469 15.0371L35.5069 14.8104L35.0138 14.728ZM36.4058 6.4L36.8989 6.48243L36.967 6.07533L36.5801 5.93139L36.4058 6.4ZM31.3897 7.792L30.991 7.49027L30.9885 7.49374L31.3897 7.792ZM30.6458 14.56L30.2297 14.8374L30.2351 14.8452L30.6458 14.56ZM29.0417 18.136C29.0417 18.3469 28.9942 18.4819 28.9317 18.5727C28.87 18.6625 28.7656 18.7502 28.5789 18.8181L28.9206 19.7579C29.2619 19.6338 29.5535 19.4335 29.7558 19.1393C29.9573 18.8461 30.0417 18.5011 30.0417 18.136H29.0417ZM28.3691 19.6122C28.6517 19.944 29.0847 20.1409 29.5736 20.2598C30.0711 20.3809 30.6889 20.436 31.4137 20.436V19.436C30.7306 19.436 30.2004 19.3831 29.8099 19.2882C29.4108 19.1911 29.2158 19.064 29.1304 18.9638L28.3691 19.6122ZM31.4137 20.436C32.3645 20.436 33.1713 20.0192 33.8139 19.2481L33.0456 18.6079C32.5682 19.1808 32.031 19.436 31.4137 19.436V20.436ZM33.8094 19.2534C34.4659 18.4875 34.9599 17.2543 35.333 15.6321L34.3585 15.4079C33.9956 16.9857 33.5456 18.0245 33.0501 18.6026L33.8094 19.2534ZM34.5922 15.089C33.8682 15.515 32.9759 15.74 31.8937 15.74V16.74C33.1156 16.74 34.1913 16.485 35.0993 15.951L34.5922 15.089ZM31.8937 15.74C31.4824 15.74 31.078 15.6763 30.6788 15.548L30.3727 16.5C30.8695 16.6597 31.3771 16.74 31.8937 16.74V15.74ZM30.6678 15.5446C30.2905 15.4328 29.9036 15.2483 29.5071 14.984L28.9524 15.816C29.4199 16.1277 29.897 16.3592 30.3837 16.5034L30.6678 15.5446ZM29.5144 14.9889C29.187 14.7623 28.8939 14.4073 28.6499 13.8905L27.7456 14.3175C28.0456 14.9527 28.4405 15.4617 28.9451 15.8111L29.5144 14.9889ZM28.6547 13.9009C28.4326 13.4012 28.3137 12.801 28.3137 12.088H27.3137C27.3137 12.911 27.4509 13.6548 27.7408 14.3071L28.6547 13.9009ZM28.3137 12.088C28.3137 10.0457 28.9047 8.50715 30.0347 7.40611L29.3368 6.68988C27.9708 8.02085 27.3137 9.84227 27.3137 12.088H28.3137ZM30.037 7.40383C31.1883 6.26735 32.5887 5.7 34.2698 5.7V4.7C32.3348 4.7 30.6792 5.36465 29.3345 6.69217L30.037 7.40383ZM34.2698 5.7C34.8474 5.7 35.3711 5.75323 35.8429 5.85645L36.0566 4.87955C35.5044 4.75877 34.9081 4.7 34.2698 4.7V5.7ZM35.846 5.85712C36.3521 5.96448 36.7052 6.0877 36.9309 6.21308L37.4166 5.33892C37.0663 5.1443 36.6034 4.99552 36.0535 4.87888L35.846 5.85712ZM36.9597 6.22787C37.2401 6.36066 37.4637 6.49508 37.6369 6.62831L38.2466 5.83569C38.0038 5.64892 37.7154 5.47933 37.3878 5.32413L36.9597 6.22787ZM37.6571 6.6431C37.8506 6.777 37.9376 6.86564 37.9669 6.90662L38.7806 6.32538C38.6499 6.14235 38.4489 5.975 38.2264 5.8209L37.6571 6.6431ZM37.9669 6.90662L38.0869 7.07462L38.9006 6.49338L38.7806 6.32538L37.9669 6.90662ZM38.0005 6.70203L36.5845 15.222L37.571 15.386L38.987 6.86597L38.0005 6.70203ZM36.5844 15.2226C36.3254 16.7917 35.7456 18.0213 34.8677 18.9432L35.5918 19.6328C36.6339 18.5387 37.2861 17.1123 37.5711 15.3854L36.5844 15.2226ZM34.8677 18.9432C34.0113 19.8424 32.9069 20.3 31.5098 20.3V21.3C33.1526 21.3 34.5282 20.7496 35.5918 19.6328L34.8677 18.9432ZM31.5098 20.3C30.2611 20.3 29.3346 20.0906 28.6868 19.7184L28.1887 20.5856C29.0449 21.0774 30.1664 21.3 31.5098 21.3V20.3ZM28.6838 19.7167C27.9907 19.325 27.8337 18.9988 27.8337 18.784H26.8337C26.8337 19.5612 27.4128 20.147 28.1917 20.5873L28.6838 19.7167ZM27.8337 18.784C27.8337 18.5237 27.9152 18.3337 28.0713 18.1776L27.3642 17.4704C27.0083 17.8263 26.8337 18.2763 26.8337 18.784H27.8337ZM28.0713 18.1776C28.247 18.0019 28.4122 17.94 28.5818 17.94V16.94C28.1113 16.94 27.7005 17.1341 27.3642 17.4704L28.0713 18.1776ZM28.5818 17.94C28.8562 17.94 28.9719 17.9924 29.0083 18.0188C29.021 18.0281 29.0245 18.034 29.0275 18.0404C29.0317 18.0495 29.0417 18.0771 29.0417 18.136H30.0417C30.0417 17.7755 29.9087 17.4364 29.5952 17.2092C29.3116 17.0036 28.9473 16.94 28.5818 16.94V17.94ZM35.5069 14.8104L36.8989 6.48243L35.9126 6.31757L34.5206 14.6456L35.5069 14.8104ZM36.5801 5.93139C35.8374 5.65504 35.0745 5.516 34.2938 5.516V6.516C34.953 6.516 35.5981 6.63296 36.2314 6.86861L36.5801 5.93139ZM34.2938 5.516C33.0379 5.516 31.9389 6.23776 30.991 7.49028L31.7885 8.09372C32.6326 6.97824 33.4696 6.516 34.2938 6.516V5.516ZM30.9885 7.49374C30.0327 8.77966 29.5697 10.3619 29.5697 12.208H30.5697C30.5697 10.5341 30.9868 9.17234 31.791 8.09026L30.9885 7.49374ZM29.5697 12.208C29.5697 13.2579 29.772 14.1508 30.2297 14.8374L31.0618 14.2826C30.7515 13.8172 30.5697 13.1421 30.5697 12.208H29.5697ZM30.2351 14.8452C30.7264 15.5527 31.4222 15.924 32.2778 15.924V14.924C31.7573 14.924 31.3651 14.7193 31.0564 14.2748L30.2351 14.8452ZM32.2778 15.924C33.4086 15.924 34.4134 15.6749 35.2723 15.156L34.7552 14.3C34.0781 14.7091 33.2589 14.924 32.2778 14.924V15.924ZM44.6522 3.184L44.2896 2.8395L44.2805 2.84952L44.6522 3.184ZM42.8042 3.352L42.4378 3.69223L42.4441 3.69901L42.4506 3.70555L42.8042 3.352ZM42.9242 1.384L43.2959 1.71858L43.3038 1.70939L42.9242 1.384ZM44.7722 1.216L44.4058 1.55622L44.4121 1.56301L44.4186 1.56955L44.7722 1.216ZM42.0362 6.904L42.5294 6.98599L42.616 6.46534L42.0914 6.40706L42.0362 6.904ZM41.4842 6.856L41.4486 7.35473H41.4486L41.4842 6.856ZM40.9322 6.808L40.877 7.30494L40.9322 6.808ZM40.5482 6.784L40.0556 6.69833L39.9537 7.284H40.5482V6.784ZM40.6442 6.232V5.732H40.2236L40.1516 6.14633L40.6442 6.232ZM42.5162 5.728L42.6839 6.1991L42.6909 6.19649L42.5162 5.728ZM44.4842 5.2L44.9774 5.2822L45.0744 4.7H44.4842V5.2ZM42.6842 16V16.5H43.1077L43.1774 16.0822L42.6842 16ZM40.5242 16L40.031 15.918L39.9342 16.5H40.5242V16ZM44.6082 2.056C44.6082 2.35677 44.5075 2.61031 44.2897 2.83962L45.0147 3.52837C45.4048 3.11769 45.6082 2.61923 45.6082 2.056H44.6082ZM44.2805 2.84952C44.0836 3.06834 43.8649 3.164 43.5962 3.164V4.164C44.1595 4.164 44.6448 3.93966 45.0238 3.51848L44.2805 2.84952ZM43.5962 3.164C43.396 3.164 43.2633 3.10397 43.1577 2.99845L42.4506 3.70555C42.7611 4.01603 43.1564 4.164 43.5962 4.164V3.164ZM43.1706 3.01177C43.0573 2.88976 42.9922 2.7354 42.9922 2.512H41.9922C41.9922 2.9606 42.1351 3.36624 42.4378 3.69223L43.1706 3.01177ZM42.9922 2.512C42.9922 2.20305 43.0908 1.94632 43.2958 1.71848L42.5525 1.04952C42.1816 1.46168 41.9922 1.95695 41.9922 2.512H42.9922ZM43.3038 1.70939C43.5037 1.47617 43.7204 1.38 43.9802 1.38V0.379999C43.408 0.379999 42.9207 0.619823 42.5446 1.0586L43.3038 1.70939ZM43.9802 1.38C44.1685 1.38 44.2973 1.43937 44.4058 1.55622L45.1386 0.875773C44.8311 0.544631 44.4319 0.379999 43.9802 0.379999V1.38ZM44.4186 1.56955C44.5427 1.69365 44.6082 1.84368 44.6082 2.056H45.6082C45.6082 1.59632 45.4496 1.18634 45.1257 0.862445L44.4186 1.56955ZM42.0914 6.40706C41.9384 6.39005 41.7472 6.37351 41.5198 6.35727L41.4486 7.35473C41.6692 7.37049 41.846 7.38594 41.981 7.40094L42.0914 6.40706ZM41.5198 6.35727C41.2992 6.34151 41.1224 6.32605 40.9874 6.31106L40.877 7.30494C41.03 7.32194 41.2211 7.33848 41.4486 7.35473L41.5198 6.35727ZM40.9874 6.31106C40.8301 6.29358 40.6831 6.284 40.5482 6.284V7.284C40.6373 7.284 40.7463 7.29042 40.877 7.30494L40.9874 6.31106ZM41.0408 6.86967L41.1368 6.31767L40.1516 6.14633L40.0556 6.69833L41.0408 6.86967ZM40.6442 6.732C40.8663 6.732 41.1522 6.6744 41.4702 6.58881C41.7998 6.50007 42.2054 6.36935 42.6838 6.19905L42.3485 5.25695C41.883 5.42265 41.5046 5.54393 41.2102 5.62319C40.9041 5.7056 40.7261 5.732 40.6442 5.732V6.732ZM42.6909 6.19649C43.1544 6.02365 43.5384 5.89738 43.8458 5.81492C44.1607 5.73042 44.3663 5.7 44.4842 5.7V4.7C44.234 4.7 43.9277 4.75758 43.5866 4.84908C43.238 4.94261 42.822 5.08035 42.3415 5.25951L42.6909 6.19649ZM43.991 5.1178L42.191 15.9178L43.1774 16.0822L44.9774 5.2822L43.991 5.1178ZM42.6842 15.5H40.5242V16.5H42.6842V15.5ZM41.0174 16.082L42.5294 6.98599L41.543 6.82201L40.031 15.918L41.0174 16.082ZM54.0401 2.92L54.349 3.31317L54.3525 3.31043L54.0401 2.92ZM52.6721 2.944L52.2503 3.21244L52.2562 3.22172L52.2625 3.23073L52.6721 2.944ZM52.5281 2.392L52.0299 2.35048V2.35048L52.5281 2.392ZM52.4081 1.864L51.9692 2.10343L51.9741 2.11244L51.9794 2.12125L52.4081 1.864ZM51.0161 2.296L51.4436 2.55552L51.4475 2.54886L51.0161 2.296ZM50.3921 4.288L50.8853 4.3702L50.8856 4.36874L50.3921 4.288ZM50.2001 5.44L49.7069 5.3578L49.6099 5.94H50.2001V5.44ZM51.3041 5.44L51.7973 5.5222L51.8944 4.94H51.3041V5.44ZM51.1841 6.16V6.66H51.6077L51.6773 6.2422L51.1841 6.16ZM50.0801 6.16V5.66H49.6572L49.5871 6.07702L50.0801 6.16ZM48.4241 16L48.707 16.4123L48.882 16.2922L48.9172 16.083L48.4241 16ZM47.2001 16.84V17.34H47.3552L47.483 17.2523L47.2001 16.84ZM46.1201 16.84L45.6271 16.7569L45.5288 17.34H46.1201V16.84ZM47.9201 6.16L48.4132 6.2431L48.5114 5.66H47.9201V6.16ZM46.7201 6.16L46.2269 6.0778L46.1299 6.66H46.7201V6.16ZM46.8401 5.44V4.94H46.4166L46.3469 5.3578L46.8401 5.44ZM48.0401 5.44V5.94H48.472L48.5348 5.51275L48.0401 5.44ZM48.1601 4.624L47.6673 4.5387L47.6654 4.55125L48.1601 4.624ZM53.7281 1.264L53.4732 1.6942L53.4801 1.69812L53.7281 1.264ZM53.9001 2.176C53.9001 2.32616 53.8507 2.43123 53.7278 2.52957L54.3525 3.31043C54.7096 3.02477 54.9001 2.63383 54.9001 2.176H53.9001ZM53.7312 2.52684C53.6014 2.62881 53.4481 2.684 53.2481 2.684V3.684C53.6561 3.684 54.0308 3.56319 54.349 3.31316L53.7312 2.52684ZM53.2481 2.684C53.1588 2.684 53.1119 2.67056 53.0924 2.66246C53.0878 2.66053 53.0848 2.65896 53.0832 2.658C53.0823 2.65751 53.0818 2.65714 53.0814 2.65691C53.0811 2.65668 53.081 2.65656 53.0809 2.65656C53.0809 2.65656 53.081 2.65663 53.0812 2.65677C53.0813 2.65691 53.0815 2.65707 53.0817 2.65724C53.082 2.65763 53.0821 2.65772 53.0817 2.65727L52.2625 3.23073C52.5018 3.57253 52.8822 3.684 53.2481 3.684V2.684ZM53.094 2.67556C53.0355 2.58365 53.0202 2.50743 53.0264 2.43352L52.0299 2.35048C52.004 2.66057 52.0848 2.95235 52.2503 3.21244L53.094 2.67556ZM53.0264 2.43352C53.0508 2.14074 52.9886 1.85967 52.8369 1.60675L51.9794 2.12125C52.0196 2.18832 52.0375 2.25926 52.0299 2.35048L53.0264 2.43352ZM52.8471 1.62457C52.6383 1.2419 52.2599 1.1 51.8801 1.1V2.1C51.953 2.1 51.9796 2.11276 51.9805 2.11321C51.9808 2.11333 51.9799 2.1129 51.9782 2.11175C51.9766 2.11059 51.9747 2.10907 51.9729 2.10729C51.9688 2.10332 51.9678 2.10099 51.9692 2.10343L52.8471 1.62457ZM51.8801 1.1C51.2946 1.1 50.877 1.54461 50.5848 2.04314L51.4475 2.54886C51.6992 2.11938 51.8577 2.1 51.8801 2.1V1.1ZM50.5887 2.03651C50.268 2.56474 50.0468 3.3021 49.8987 4.20725L50.8856 4.36874C51.0254 3.5139 51.2202 2.92326 51.4435 2.55549L50.5887 2.03651ZM49.8989 4.2058L49.7069 5.3578L50.6933 5.5222L50.8853 4.3702L49.8989 4.2058ZM50.2001 5.94H51.3041V4.94H50.2001V5.94ZM50.8109 5.3578L50.6909 6.0778L51.6773 6.2422L51.7973 5.5222L50.8109 5.3578ZM51.1841 5.66H50.0801V6.66H51.1841V5.66ZM49.5871 6.07702L47.9311 15.917L48.9172 16.083L50.5732 6.24298L49.5871 6.07702ZM48.1412 15.5877L46.9172 16.4277L47.483 17.2523L48.707 16.4123L48.1412 15.5877ZM47.2001 16.34H46.1201V17.34H47.2001V16.34ZM46.6132 16.9231L48.4132 6.2431L47.4271 6.0769L45.6271 16.7569L46.6132 16.9231ZM47.9201 5.66H46.7201V6.66H47.9201V5.66ZM47.2133 6.2422L47.3333 5.5222L46.3469 5.3578L46.2269 6.0778L47.2133 6.2422ZM46.8401 5.94H48.0401V4.94H46.8401V5.94ZM48.5348 5.51275L48.6548 4.69675L47.6654 4.55125L47.5454 5.36725L48.5348 5.51275ZM48.6528 4.70927C48.8593 3.51641 49.2389 2.68843 49.7445 2.16255C50.237 1.65036 50.8918 1.38 51.7601 1.38V0.379999C50.6605 0.379999 49.7312 0.733639 49.0237 1.46944C48.3294 2.19157 47.893 3.23559 47.6674 4.53873L48.6528 4.70927ZM51.7601 1.38C52.6091 1.38 53.1567 1.5066 53.4732 1.69415L53.983 0.833854C53.4355 0.509393 52.6711 0.379999 51.7601 0.379999V1.38ZM53.4801 1.69812C53.8521 1.9107 53.9001 2.07952 53.9001 2.176H54.9001C54.9001 1.56848 54.5002 1.1293 53.9762 0.829878L53.4801 1.69812ZM56.9921 1.96L57.4854 2.04165L57.5817 1.46H56.9921V1.96ZM56.4161 5.44L55.9228 5.35835L55.8266 5.94H56.4161V5.44ZM58.4801 5.44L58.9733 5.5222L59.0704 4.94H58.4801V5.44ZM58.3601 6.16V6.66H58.7837L58.8533 6.2422L58.3601 6.16ZM56.2961 6.16V5.66H55.8739L55.8032 6.07629L56.2961 6.16ZM55.0001 13.792L54.5072 13.7083L54.5053 13.7191L54.504 13.73L55.0001 13.792ZM56.9441 14.92L57.2587 15.3086L57.2607 15.307L56.9441 14.92ZM57.7601 13.744L57.9995 13.3051L57.4995 13.0323L57.2938 13.5635L57.7601 13.744ZM58.2881 14.032L58.752 14.2186L58.9179 13.806L58.5275 13.5931L58.2881 14.032ZM52.7441 13.6L53.2344 13.6981L53.2359 13.6904L53.2372 13.6827L52.7441 13.6ZM53.9921 6.16L54.4852 6.24271L54.583 5.66H53.9921V6.16ZM52.3121 6.16L51.8189 6.0778L51.7219 6.66H52.3121V6.16ZM52.4321 5.44V4.94H52.0086L51.9389 5.3578L52.4321 5.44ZM54.8561 4.408L55.2097 4.76155L54.8561 4.408ZM56.1281 1.96V1.46H55.6997L55.634 1.88333L56.1281 1.96ZM56.4988 1.87835L55.9228 5.35835L56.9094 5.52165L57.4854 2.04165L56.4988 1.87835ZM56.4161 5.94H58.4801V4.94H56.4161V5.94ZM57.9869 5.3578L57.8669 6.0778L58.8533 6.2422L58.9733 5.5222L57.9869 5.3578ZM58.3601 5.66H56.2961V6.66H58.3601V5.66ZM55.8032 6.07629L54.5072 13.7083L55.4931 13.8757L56.7891 6.24371L55.8032 6.07629ZM54.504 13.73C54.4719 13.9871 54.4521 14.1981 54.4521 14.344H55.4521C55.4521 14.2659 55.4644 14.1089 55.4963 13.854L54.504 13.73ZM54.4521 14.344C54.4521 14.7585 54.565 15.1587 54.8753 15.4478C55.1789 15.7307 55.5875 15.828 56.0081 15.828V14.828C55.7248 14.828 55.6054 14.7613 55.557 14.7162C55.5153 14.6773 55.4521 14.5855 55.4521 14.344H54.4521ZM56.0081 15.828C56.4557 15.828 56.8765 15.6181 57.2587 15.3086L56.6295 14.5314C56.3398 14.7659 56.1366 14.828 56.0081 14.828V15.828ZM57.2607 15.307C57.6902 14.9556 58.0085 14.4873 58.2264 13.9245L57.2938 13.5635C57.1277 13.9927 56.9021 14.3084 56.6275 14.533L57.2607 15.307ZM57.5207 14.1829L58.0487 14.4709L58.5275 13.5931L57.9995 13.3051L57.5207 14.1829ZM57.8242 13.8454C57.5576 14.5085 57.1936 14.9724 56.748 15.2739C56.3024 15.5753 55.7371 15.74 55.0241 15.74V16.74C55.8951 16.74 56.6658 16.5367 57.3083 16.1021C57.9507 15.6676 58.4267 15.0275 58.752 14.2186L57.8242 13.8454ZM55.0241 15.74C54.2976 15.74 53.8459 15.5862 53.581 15.3645C53.3332 15.1572 53.1721 14.8252 53.1721 14.272H52.1721C52.1721 15.0308 52.4031 15.6828 52.9393 16.1315C53.4584 16.5658 54.1826 16.74 55.0241 16.74V15.74ZM53.1721 14.272C53.1721 14.1021 53.1918 13.9113 53.2344 13.6981L52.2538 13.5019C52.2005 13.7687 52.1721 14.0259 52.1721 14.272H53.1721ZM53.2372 13.6827L54.4852 6.24271L53.499 6.07728L52.251 13.5173L53.2372 13.6827ZM53.9921 5.66H52.3121V6.66H53.9921V5.66ZM52.8053 6.2422L52.9253 5.5222L51.9389 5.3578L51.8189 6.0778L52.8053 6.2422ZM52.4321 5.94C53.4997 5.94 54.433 5.53826 55.2097 4.76155L54.5026 4.05445C53.9033 4.65374 53.2205 4.94 52.4321 4.94V5.94ZM55.2097 4.76155C55.9839 3.98731 56.4609 3.07605 56.6222 2.03667L55.634 1.88333C55.5073 2.69995 55.1363 3.42069 54.5026 4.05445L55.2097 4.76155ZM56.1281 2.46H56.9921V1.46H56.1281V2.46ZM63.2083 16L63.6437 16.2459L63.7392 16.0768L63.6955 15.8877L63.2083 16ZM61.0003 6.424L61.4875 6.31166L61.4839 6.29586L61.4792 6.28033L61.0003 6.424ZM59.5603 5.944L59.0691 5.85044L58.9561 6.444H59.5603V5.944ZM59.6563 5.44V4.94H59.2426L59.1651 5.34644L59.6563 5.44ZM63.0643 5.44L63.551 5.32522L63.4601 4.94H63.0643V5.44ZM64.8643 13.072L64.3777 13.1868L64.6705 14.4286L65.2994 13.3184L64.8643 13.072ZM68.7523 6.208L69.1874 6.45443L69.3916 6.09393L69.0753 5.82631L68.7523 6.208ZM67.4563 5.944L66.9651 5.85044L66.8521 6.444H67.4563V5.944ZM67.5523 5.44V4.94H67.1386L67.0611 5.34644L67.5523 5.44ZM70.3843 5.44L70.819 5.68703L71.2435 4.94H70.3843V5.44ZM62.9923 18.448L63.4239 18.7006L63.427 18.695L62.9923 18.448ZM59.5123 20.2L59.2123 20.6L59.5123 20.2ZM59.5123 18.952L59.1327 18.6266L59.5123 18.952ZM60.5923 18.808L60.9268 18.4364L60.916 18.4266L60.9047 18.4176L60.5923 18.808ZM61.7443 18.592L61.3089 18.3461L61.3072 18.3492L61.7443 18.592ZM63.6955 15.8877L61.4875 6.31166L60.5131 6.53634L62.7211 16.1123L63.6955 15.8877ZM61.4792 6.28033C61.364 5.89624 61.0379 5.69347 60.7264 5.58966C60.4118 5.4848 60.0137 5.444 59.5603 5.444V6.444C59.9709 6.444 60.2448 6.4832 60.4102 6.53834C60.5788 6.59453 60.5406 6.63176 60.5214 6.56767L61.4792 6.28033ZM60.0515 6.03756L60.1475 5.53356L59.1651 5.34644L59.0691 5.85044L60.0515 6.03756ZM59.6563 5.94H63.0643V4.94H59.6563V5.94ZM62.5777 5.55478L64.3777 13.1868L65.351 12.9572L63.551 5.32522L62.5777 5.55478ZM65.2994 13.3184L69.1874 6.45443L68.3173 5.96157L64.4293 12.8256L65.2994 13.3184ZM69.0753 5.82631C68.8792 5.6604 68.6249 5.57156 68.3721 5.52006C68.1116 5.46699 67.8033 5.444 67.4563 5.444V6.444C67.7653 6.444 68.0011 6.46501 68.1725 6.49994C68.3517 6.53644 68.4174 6.5796 68.4293 6.58969L69.0753 5.82631ZM67.9475 6.03756L68.0435 5.53356L67.0611 5.34644L66.9651 5.85044L67.9475 6.03756ZM67.5523 5.94H70.3843V4.94H67.5523V5.94ZM69.9496 5.19297L62.5576 18.201L63.427 18.695L70.819 5.68703L69.9496 5.19297ZM62.5608 18.1954C61.8481 19.4129 61.0358 19.916 60.1363 19.916V20.916C61.5088 20.916 62.6005 20.1071 63.4238 18.7006L62.5608 18.1954ZM60.1363 19.916C60.0284 19.916 59.9243 19.884 59.8123 19.8L59.2123 20.6C59.4843 20.804 59.7962 20.916 60.1363 20.916V19.916ZM59.8123 19.8C59.7242 19.7339 59.7243 19.697 59.7243 19.672H58.7243C58.7243 20.063 58.9165 20.3781 59.2123 20.6L59.8123 19.8ZM59.7243 19.672C59.7243 19.5533 59.7651 19.4254 59.8919 19.2774L59.1327 18.6266C58.8756 18.9266 58.7243 19.2787 58.7243 19.672H59.7243ZM59.8919 19.2774C60.0127 19.1365 60.0992 19.116 60.1603 19.116V18.116C59.7415 18.116 59.396 18.3195 59.1327 18.6266L59.8919 19.2774ZM60.1603 19.116C60.1402 19.116 60.1388 19.1109 60.1612 19.1209C60.1845 19.1312 60.224 19.1536 60.28 19.1984L60.9047 18.4176C60.7057 18.2584 60.4523 18.116 60.1603 18.116V19.116ZM60.2578 19.1796C60.4358 19.3398 60.6925 19.524 61.0003 19.524V18.524C61.0506 18.524 61.0698 18.5395 61.0483 18.5281C61.0277 18.5172 60.9874 18.4909 60.9268 18.4364L60.2578 19.1796ZM61.0003 19.524C61.2412 19.524 61.4769 19.4718 61.6894 19.3484C61.9024 19.2247 62.0642 19.0457 62.1814 18.8348L61.3072 18.3492C61.2644 18.4263 61.2223 18.4633 61.1872 18.4836C61.1517 18.5042 61.0954 18.524 61.0003 18.524V19.524ZM62.1797 18.8379L63.6437 16.2459L62.773 15.7541L61.309 18.3461L62.1797 18.8379Z" fill="#113C9A" mask="url(#path-1-outside-1_2591_758)"/>
</svg>
