<svg width="88" height="51" viewBox="0 0 88 51" fill="none" xmlns="http://www.w3.org/2000/svg">
<path d="M28.8725 22.4229L24.3075 26.4604C23.6944 27.001 23.2876 27.7374 23.1563 28.5442C23.025 29.351 23.1774 30.1782 23.5875 30.8853L27.72 38.1353C28.1249 38.8364 28.7598 39.3761 29.5171 39.6627C30.2743 39.9492 31.1073 39.9652 31.875 39.7079L37.6175 37.7504L28.8725 22.4229Z" stroke="#113C9A" stroke-width="2" stroke-linecap="round" stroke-linejoin="round"/>
<path d="M38.1451 6.84961C37.0037 10.3552 35.5738 13.7601 33.8701 17.0296C32.5923 19.152 30.8901 20.9878 28.8701 22.4221L37.6176 37.7021C39.8801 36.6595 42.3321 36.0912 44.8226 36.0321C48.4826 36.1971 52.1226 36.6571 55.7051 37.4121" stroke="#113C9A" stroke-width="2" stroke-linecap="round" stroke-linejoin="round"/>
<path d="M23.9005 31.415L22.3855 32.31C21.9823 32.5412 21.6292 32.8504 21.3467 33.2195C21.0643 33.5887 20.8582 34.0104 20.7405 34.46C20.6209 34.9098 20.5923 35.379 20.6563 35.84C20.7202 36.3011 20.8755 36.7447 21.113 37.145C21.3415 37.5485 21.6479 37.9027 22.0144 38.1868C22.3809 38.4709 22.8002 38.6793 23.248 38.8C23.6953 38.9203 24.1622 38.9493 24.6209 38.8853C25.0796 38.8213 25.5207 38.6656 25.918 38.4275L27.3355 37.5325M39.3455 37.025L43.598 44.45C44.0527 45.2636 44.1741 46.2217 43.9368 47.123C43.6995 48.0243 43.1219 48.7984 42.3255 49.2825C41.9247 49.5137 41.4821 49.6634 41.0232 49.723C40.5643 49.7825 40.0981 49.7507 39.6516 49.6295C39.205 49.5082 38.7868 49.2998 38.4211 49.0163C38.0553 48.7328 37.7493 48.3797 37.5205 47.9775L32.7155 39.4425M64.0905 12.605L57.8455 16.23M69.3755 25.0575H62.168M55.563 1L51.958 7.2875M38.133 6.8525L41.1705 5.0875C41.5693 4.8547 42.0103 4.7034 42.4681 4.6424C42.9258 4.5814 43.391 4.6119 43.8369 4.7321C44.2827 4.8524 44.7002 5.06 45.0652 5.3428C45.4302 5.6257 45.7354 5.9783 45.963 6.38L59.9805 30.815C60.4359 31.6256 60.5551 32.5825 60.3125 33.4801C60.0698 34.3777 59.4848 35.1442 58.683 35.615L55.6455 37.3825L38.133 6.8525Z" stroke="#113C9A" stroke-width="2" stroke-linecap="round" stroke-linejoin="round"/>
<g opacity="0.44">
<path d="M44 47.375C68.3005 47.375 88 37.5253 88 25.375C88 13.2247 68.3005 3.375 44 3.375C19.6995 3.375 0 13.2247 0 25.375C0 37.5253 19.6995 47.375 44 47.375Z" fill="url(#paint0_radial_1078_36)"/>
</g>
<defs>
<radialGradient id="paint0_radial_1078_36" cx="0" cy="0" r="1" gradientUnits="userSpaceOnUse" gradientTransform="translate(44 25.375) rotate(90) scale(22 44)">
<stop stop-color="#113C9A"/>
<stop offset="1" stop-color="#7B97D4" stop-opacity="0"/>
</radialGradient>
</defs>
</svg>
